<svg xmlns="http://www.w3.org/2000/svg" viewBox="0 0 1920 1080">
  <!-- 배경 그라데이션 -->
  <defs>
    <linearGradient id="bgGradient" x1="0%" y1="0%" x2="100%" y2="100%">
      <stop offset="0%" stop-color="#2c4a6d" />
      <stop offset="100%" stop-color="#2980b9" />
    </linearGradient>
    
    <!-- 청사진 패턴 -->
    <pattern id="blueprintPattern" width="100" height="100" patternUnits="userSpaceOnUse">
      <rect width="100" height="100" fill="none" stroke="#4ca5d0" stroke-width="0.5" opacity="0.1" />
      <line x1="0" y1="0" x2="100" y2="100" stroke="#4ca5d0" stroke-width="0.5" opacity="0.1" />
      <line x1="100" y1="0" x2="0" y2="100" stroke="#4ca5d0" stroke-width="0.5" opacity="0.1" />
    </pattern>
    
    <!-- 문서 패턴 -->
    <pattern id="docsPattern" width="200" height="200" patternUnits="userSpaceOnUse">
      <rect x="40" y="40" width="120" height="160" fill="white" opacity="0.05" rx="5" ry="5" />
      <rect x="50" y="50" width="100" height="10" fill="white" opacity="0.1" rx="2" ry="2" />
      <rect x="50" y="70" width="100" height="5" fill="white" opacity="0.07" rx="1" ry="1" />
      <rect x="50" y="85" width="100" height="5" fill="white" opacity="0.07" rx="1" ry="1" />
      <rect x="50" y="100" width="80" height="5" fill="white" opacity="0.07" rx="1" ry="1" />
      <rect x="50" y="130" width="80" height="30" fill="white" opacity="0.03" rx="3" ry="3" />
      <rect x="50" y="170" width="50" height="2" fill="white" opacity="0.1" rx="1" ry="1" />
    </pattern>
    
    <!-- 체크마크 패턴 -->
    <pattern id="checksPattern" width="300" height="300" patternUnits="userSpaceOnUse">
      <circle cx="150" cy="150" r="20" fill="#ff6b3d" opacity="0.1" />
      <path d="M140,150 L150,160 L165,140" stroke="white" stroke-width="3" fill="none" opacity="0.3" />
    </pattern>
    
    <!-- 빌딩 블록 패턴 -->
    <pattern id="buildingPattern" width="400" height="400" patternUnits="userSpaceOnUse">
      <rect x="150" y="100" width="100" height="200" fill="white" opacity="0.03" />
      <rect x="170" y="130" width="20" height="20" fill="white" opacity="0.05" />
      <rect x="210" y="130" width="20" height="20" fill="white" opacity="0.05" />
      <rect x="170" y="170" width="20" height="20" fill="white" opacity="0.05" />
      <rect x="210" y="170" width="20" height="20" fill="white" opacity="0.05" />
      <rect x="170" y="210" width="20" height="20" fill="white" opacity="0.05" />
      <rect x="210" y="210" width="20" height="20" fill="white" opacity="0.05" />
      <rect x="190" y="280" width="20" height="20" fill="white" opacity="0.05" />
    </pattern>
  </defs>
  
  <!-- 메인 배경 -->
  <rect width="1920" height="1080" fill="url(#bgGradient)" />
  
  <!-- 패턴 레이어 -->
  <rect width="1920" height="1080" fill="url(#blueprintPattern)" />
  <rect width="1920" height="1080" fill="url(#docsPattern)" />
  <rect width="1920" height="1080" fill="url(#checksPattern)" />
  <rect width="1920" height="1080" fill="url(#buildingPattern)" />
  
  <!-- 장식적 원소 -->
  <!-- 왼쪽 하단 장식 -->
  <g opacity="0.1">
    <circle cx="200" cy="880" r="150" fill="#4ca5d0" />
    <circle cx="200" cy="880" r="100" fill="#2980b9" />
    <circle cx="200" cy="880" r="50" fill="#ff6b3d" />
  </g>
  
  <!-- 오른쪽 상단 장식 -->
  <g opacity="0.1">
    <circle cx="1720" cy="200" r="120" fill="#4ca5d0" />
    <circle cx="1720" cy="200" r="80" fill="#2980b9" />
    <circle cx="1720" cy="200" r="40" fill="#ff6b3d" />
  </g>
  
  <!-- 중앙 장식 선 -->
  <path d="M0,400 Q960,500 1920,350" stroke="#ff6b3d" stroke-width="2" fill="none" opacity="0.1" />
  <path d="M0,600 Q960,700 1920,550" stroke="#4ca5d0" stroke-width="2" fill="none" opacity="0.1" />
</svg>